<svg xmlns="http://www.w3.org/2000/svg" viewBox="0 0 100 100" fill-rule="evenodd"><rect x="0" y="0" width="100" height="100" fill="#e2e2e2" rx="50" ry="50"></rect><g style="transform-origin:center;transform:scale(0.58);"><path d="M80.5 11H61V7.5A1.5 1.5 0 0 0 59.5 6h-18A1.5 1.5 0 0 0 40 7.5V11H21.5a1.5 1.5 0 0 0-1.5 1.5v72a1.5 1.5 0 0 0 1.5 1.5h59a1.5 1.5 0 0 0 1.5-1.5v-72a1.5 1.5 0 0 0-1.5-1.5ZM43 9h15v6H43Zm36 74H23V14h17v2.5a1.5 1.5 0 0 0 1.5 1.5h18a1.5 1.5 0 0 0 1.5-1.5V14h18Z" stroke-width="0" stroke="#000000" fill="#000000"></path><path d="M33.5 34h-5a1.5 1.5 0 0 0 0 3h5a1.5 1.5 0 0 0 0-3Zm7 0a1.5 1.5 0 0 0 0 3h33a1.5 1.5 0 0 0 0-3Zm-7 13h-5a1.5 1.5 0 0 0 0 3h5a1.5 1.5 0 0 0 0-3Zm40 0h-33a1.5 1.5 0 0 0 0 3h33a1.5 1.5 0 0 0 0-3Zm-40 13h-5a1.5 1.5 0 0 0 0 3h5a1.5 1.5 0 0 0 0-3Zm40 0h-33a1.5 1.5 0 0 0 0 3h33a1.5 1.5 0 0 0 0-3Z" stroke-width="0" stroke="#000000" fill="#000000"></path></g></svg>
